<svg width="132" height="37" viewBox="0 0 132 37" fill="none" xmlns="http://www.w3.org/2000/svg">
<path d="M29.3672 8.22656H19.125V36H10.8984V8.22656H0.84375V1.875H29.3672V8.22656Z" fill="#FF5300"/>
<path d="M42.6094 26.6016L46.6172 10.6406H54.9375L46.6641 36H38.6016L30.3281 10.6406H38.6719L42.6094 26.6016ZM69.2344 36.4688C65.3438 36.4688 62.1953 35.3125 59.7891 33C57.3828 30.6719 56.1797 27.6484 56.1797 23.9297V23.2734C56.1797 20.6797 56.6562 18.3906 57.6094 16.4062C58.5781 14.4219 59.9844 12.8906 61.8281 11.8125C63.6719 10.7188 65.8594 10.1719 68.3906 10.1719C71.9531 10.1719 74.7656 11.2812 76.8281 13.5C78.8906 15.7031 79.9219 18.7812 79.9219 22.7344V25.8047H64.2188C64.5 27.2266 65.1172 28.3438 66.0703 29.1562C67.0234 29.9688 68.2578 30.375 69.7734 30.375C72.2734 30.375 74.2266 29.5 75.6328 27.75L79.2422 32.0156C78.2578 33.375 76.8594 34.4609 75.0469 35.2734C73.25 36.0703 71.3125 36.4688 69.2344 36.4688ZM68.3438 16.2656C66.0312 16.2656 64.6562 17.7969 64.2188 20.8594H72.1875V20.25C72.2188 18.9844 71.8984 18.0078 71.2266 17.3203C70.5547 16.6172 69.5938 16.2656 68.3438 16.2656ZM91.4531 36H83.5312V0H91.4531V36ZM104.672 36H96.75V10.6406H104.672V36ZM96.2812 4.10156C96.2812 2.97656 96.6875 2.05469 97.5 1.33594C98.3125 0.617187 99.3672 0.257812 100.664 0.257812C101.961 0.257812 103.016 0.617187 103.828 1.33594C104.641 2.05469 105.047 2.97656 105.047 4.10156C105.047 5.22656 104.641 6.14844 103.828 6.86719C103.016 7.58594 101.961 7.94531 100.664 7.94531C99.3672 7.94531 98.3125 7.58594 97.5 6.86719C96.6875 6.14844 96.2812 5.22656 96.2812 4.10156ZM123.844 36C123.562 35.4844 123.312 34.7266 123.094 33.7266C121.641 35.5547 119.609 36.4688 117 36.4688C114.609 36.4688 112.578 35.75 110.906 34.3125C109.234 32.8594 108.398 31.0391 108.398 28.8516C108.398 26.1016 109.414 24.0234 111.445 22.6172C113.477 21.2109 116.43 20.5078 120.305 20.5078H122.742V19.1719C122.742 16.8438 121.734 15.6797 119.719 15.6797C117.844 15.6797 116.906 16.6016 116.906 18.4453H109.008C109.008 15.9922 110.047 14 112.125 12.4688C114.219 10.9375 116.883 10.1719 120.117 10.1719C123.352 10.1719 125.906 10.9609 127.781 12.5391C129.656 14.1172 130.617 16.2812 130.664 19.0312V30.2578C130.695 32.5859 131.055 34.3672 131.742 35.6016V36H123.844ZM118.898 30.8438C119.883 30.8438 120.695 30.6328 121.336 30.2109C121.992 29.7891 122.461 29.3125 122.742 28.7812V24.7266H120.445C117.695 24.7266 116.32 25.9609 116.32 28.4297C116.32 29.1484 116.562 29.7344 117.047 30.1875C117.531 30.625 118.148 30.8438 118.898 30.8438Z" fill="black"/>
</svg>
